# xmcd CD database file
#
# Track frame offsets:
#	182
#	61972
#	78477
#	89480
#	100957
#	119522
#	134275
#	150040
#	163935
#	176432
#	191010
#	205307
#	218035
#	229867
#	240600
#	252225
#	264182
#	276120
#
# Disc length: 3974 seconds
#
# Revision: 0
# Processed by: cddbd v1.4PL0 Copyright (c) Steve Scherf et al.
# Submitted via: CDex 1.40Release
#
DISCID=f70f8412
DTITLE=George Gershwin - By George, Gershwin Plays Gershwin
DYEAR=1994
DGENRE=Blues
TTITLE0=Rhapsody In Blue
TTITLE1=I Was So Young, You Were So Beautiful
TTITLE2=Tee-oodle-um-bum-bo
TTITLE3=Drifting Along With The Tide
TTITLE4=So Am I
TTITLE5=Kickin' The Couds Away
TTITLE6=Sweet And Low-Down
TTITLE7=Do Do Do
TTITLE8=Clap Your Hands
TTITLE9=Maybe
TTITLE10=Someone To Watch Over Me
TTITLE11='S Wonderful/Happy Face
TTITLE12=My One And Only
TTITLE13=That Certain Feeling
TTITLE14=When We Dance
TTITLE15=Looking For A Boy
TTITLE16=Sweet And Low-Down
TTITLE17=Preludes No.'s 1,2,& 3
EXTD=YEAR: 1994 ID3G: 0
EXTT0=
EXTT1=
EXTT2=
EXTT3=
EXTT4=
EXTT5=
EXTT6=
EXTT7=
EXTT8=
EXTT9=
EXTT10=
EXTT11=
EXTT12=
EXTT13=
EXTT14=
EXTT15=
EXTT16=
EXTT17=
PLAYORDER=
